<svg id="like" xmlns="http://www.w3.org/2000/svg" width="209.156" height="232.8" viewBox="0 0 209.156 232.8">
  <g id="Сгруппировать_22" data-name="Сгруппировать 22" transform="translate(140.953)">
    <g id="Сгруппировать_21" data-name="Сгруппировать 21">
      <path id="Контур_34" data-name="Контур 34" d="M340.547,0A4.547,4.547,0,0,0,336,4.547V25.463a4.547,4.547,0,1,0,9.094,0V4.547A4.547,4.547,0,0,0,340.547,0Z" transform="translate(-336)" fill="#152035"/>
    </g>
  </g>
  <g id="Сгруппировать_24" data-name="Сгруппировать 24" transform="translate(36.375 141.863)">
    <g id="Сгруппировать_23" data-name="Сгруппировать 23">
      <path id="Контур_35" data-name="Контур 35" d="M110.547,312a4.547,4.547,0,1,0,4.547,4.547A4.549,4.549,0,0,0,110.547,312Z" transform="translate(-106 -312)" fill="#152035"/>
    </g>
  </g>
  <g id="Сгруппировать_26" data-name="Сгруппировать 26" transform="translate(0 48.197)">
    <g id="Сгруппировать_25" data-name="Сгруппировать 25">
      <path id="Контур_36" data-name="Контур 36" d="M235.157,190.572a18.208,18.208,0,0,0-18.188-18.188H183.026c5.255-13.46,7.382-29.3,6.972-43.406a51.777,51.777,0,0,0-.321-5.228,18.184,18.184,0,0,0-36.364.437v4.547c0,28.757-36.927,44.915-64.795,51.843a13.659,13.659,0,0,0-12.5-8.193H30.547A4.547,4.547,0,0,0,26,176.931V286.056a4.547,4.547,0,0,0,4.547,4.547H76.016a13.657,13.657,0,0,0,12.459-8.1q3.461.888,6.427,1.668c15.875,4.146,24.62,6.43,45.889,6.43h48.9A18.178,18.178,0,0,0,204.8,262.3a18.242,18.242,0,0,0,9.127-27.292,18.182,18.182,0,0,0,9.06-27.27A18.193,18.193,0,0,0,235.157,190.572ZM80.563,276.963a4.552,4.552,0,0,1-4.547,4.547H35.094V181.478H76.016a4.552,4.552,0,0,1,4.547,4.547Zm136.406-77.3H194.235a4.547,4.547,0,0,0,0,9.094h13.641a9.094,9.094,0,0,1,0,18.188H185.141a4.547,4.547,0,1,0,0,9.094h13.641a9.094,9.094,0,1,1,0,18.188H176.047a4.547,4.547,0,0,0,0,9.094h13.641a9.094,9.094,0,1,1,0,18.188h-48.9c-20.1,0-27.951-2.05-43.591-6.135q-3.437-.9-7.543-1.953V189.674c32.9-7.838,72.75-26.969,72.75-60.94v-4.547a9.094,9.094,0,0,1,18.188-.014v.014c0,1.976,2.466,26.228-7.423,48.2H157.86a4.547,4.547,0,1,0,0,9.094h59.109a9.094,9.094,0,1,1,0,18.188Z" transform="translate(-26 -106)" fill="#152035"/>
    </g>
  </g>
  <g id="Сгруппировать_28" data-name="Сгруппировать 28" transform="translate(36.375 160.05)">
    <g id="Сгруппировать_27" data-name="Сгруппировать 27">
      <path id="Контур_37" data-name="Контур 37" d="M110.547,352A4.547,4.547,0,0,0,106,356.547v36.375a4.547,4.547,0,0,0,9.094,0V356.547A4.547,4.547,0,0,0,110.547,352Z" transform="translate(-106 -352)" fill="#152035"/>
    </g>
  </g>
  <g id="Сгруппировать_30" data-name="Сгруппировать 30" transform="translate(86.391 57.291)">
    <g id="Сгруппировать_29" data-name="Сгруппировать 29">
      <path id="Контур_38" data-name="Контур 38" d="M238.734,126H220.547a4.547,4.547,0,0,0,0,9.094h18.188a4.547,4.547,0,1,0,0-9.094Z" transform="translate(-216 -126)" fill="#152035"/>
    </g>
  </g>
  <g id="Сгруппировать_32" data-name="Сгруппировать 32" transform="translate(177.328 57.291)">
    <g id="Сгруппировать_31" data-name="Сгруппировать 31">
      <path id="Контур_39" data-name="Контур 39" d="M438.734,126H420.547a4.547,4.547,0,0,0,0,9.094h18.188a4.547,4.547,0,0,0,0-9.094Z" transform="translate(-416 -126)" fill="#152035"/>
    </g>
  </g>
  <g id="Сгруппировать_34" data-name="Сгруппировать 34" transform="translate(166.675 18.711)">
    <g id="Сгруппировать_33" data-name="Сгруппировать 33">
      <path id="Контур_40" data-name="Контур 40" d="M413.191,42.482a4.548,4.548,0,0,0-6.431,0L393.9,55.34a4.547,4.547,0,1,0,6.431,6.431l12.858-12.858A4.548,4.548,0,0,0,413.191,42.482Z" transform="translate(-392.57 -41.151)" fill="#152035"/>
    </g>
  </g>
  <g id="Сгруппировать_36" data-name="Сгруппировать 36" transform="translate(102.373 18.711)">
    <g id="Сгруппировать_35" data-name="Сгруппировать 35">
      <path id="Контур_41" data-name="Контур 41" d="M271.771,55.34,258.913,42.482a4.547,4.547,0,1,0-6.431,6.431L265.34,61.771a4.547,4.547,0,0,0,6.431-6.431Z" transform="translate(-251.15 -41.151)" fill="#152035"/>
    </g>
  </g>
</svg>
