<svg id="Слой_2" data-name="Слой 2" xmlns="http://www.w3.org/2000/svg" width="1164.579" height="243.201" viewBox="0 0 1164.579 243.201">
  <g id="Слой_1" data-name="Слой 1">
    <path id="Контур_11" data-name="Контур 11" d="M76.311,48.119,38,47.363V.21H182.131V47.363l-40.581.756" transform="translate(687.504 4.056)" fill="#fdb900"/>
    <path id="Контур_12" data-name="Контур 12" d="M39.98,73.12,105.65,7.45l-.191,65.861-32.453,31.5Z" transform="translate(723.323 135.029)" fill="#fdb900"/>
    <path id="Контур_13" data-name="Контур 13" d="M39.98,69.44v42.38l65.67-65.67V3.77Z" transform="translate(723.323 68.458)" fill="#fdb900"/>
    <path id="Контур_14" data-name="Контур 14" d="M39.98,2.68V62.814L106.032,2.68Z" transform="translate(723.323 48.739)" fill="#fdb900"/>
    <path id="Контур_15" data-name="Контур 15" d="M246.718,119.735a166.659,166.659,0,0,1-2.291,33.026,53.834,53.834,0,0,1-14.127,25.2c-11.072,11.645-31.881,17.563-62.616,17.563H156.039V233.7H89.605v-38.18H79.3A86.287,86.287,0,0,1,16.49,177.96a53.834,53.834,0,0,1-14.127-25.2A166.658,166.658,0,0,1,.072,119.735v-4.2A167.8,167.8,0,0,1,2.363,82.509,53.834,53.834,0,0,1,16.49,57.31C27.371,46.046,48.37,40.319,79.3,40.319H89.605V.23h66.434V39.938h11.645c30.926,0,51.734,5.727,62.616,16.99a53.835,53.835,0,0,1,14.127,25.2,167.8,167.8,0,0,1,2.291,33.026ZM89.605,159.061V76.209H84.069A14.7,14.7,0,0,0,71.66,83.463a32.263,32.263,0,0,0-5.154,19.09v30.163a31.881,31.881,0,0,0,5.154,19.09,14.7,14.7,0,0,0,12.409,7.254Zm90.869-26.344V102.554a32.262,32.262,0,0,0-5.154-19.09,15.081,15.081,0,0,0-12.6-7.254h-6.682v82.852h6.682a15.081,15.081,0,0,0,12.6-7.254,31.881,31.881,0,0,0,5.154-19.09Z" transform="translate(0.004 4.418)" fill="#fdb900"/>
    <path id="Контур_16" data-name="Контур 16" d="M13.92.318H80.545a164.176,164.176,0,0,1,41.617,4.009,46.771,46.771,0,0,1,21.954,10.5,38.181,38.181,0,0,1,9.927,17.754,148.523,148.523,0,0,1,2.482,32.453v21a77.7,77.7,0,0,1-4.963,32.644,34.362,34.362,0,0,1-19.09,15.845,95.45,95.45,0,0,1-35.126,5.345H79.59v94.115H13.92ZM80.163,40.407V99.778h4.773a16.036,16.036,0,0,0,12.79-4.2,28.444,28.444,0,0,0,3.436-16.99V59.5a21.763,21.763,0,0,0-4.009-15.654,28.444,28.444,0,0,0-16.99-3.436Z" transform="translate(251.892 4.521)" fill="#fdb900"/>
    <path id="Контур_17" data-name="Контур 17" d="M22.42.24H132.952V47.011H88.663v44.1h41.426V135.78H88.663v50.78h48.68v46.771H22.8Z" transform="translate(405.659 4.599)" fill="#fdb900"/>
    <path id="Контур_18" data-name="Контур 18" d="M151.118,106.195A39.707,39.707,0,0,1,172.69,120.7a101.75,101.75,0,0,1,7.063,47.726,105.378,105.378,0,0,1-7.063,43.335,45.817,45.817,0,0,1-23.863,23.29,101.942,101.942,0,0,1-43.526,8.018,102.705,102.705,0,0,1-47.535-9.163A47.344,47.344,0,0,1,35.24,210.236,138.787,138.787,0,0,1,29.7,163.465v-19.09h63.57v38.18a55.362,55.362,0,0,0,2.1,19.09c1.145,2.673,4.2,4.009,8.591,4.009A9.545,9.545,0,0,0,113.7,200.5a82.468,82.468,0,0,0,2.482-27.108V158.5a44.29,44.29,0,0,0-3.245-19.09,16.227,16.227,0,0,0-9.927-8.209A105.188,105.188,0,0,0,78,128.912V94.55a135.733,135.733,0,0,0,28.063-1.527A11.454,11.454,0,0,0,113.7,86.15a41.426,41.426,0,0,0,2.482-16.8V56.369a30.735,30.735,0,0,0-2.864-16.227,9.736,9.736,0,0,0-8.591-3.818,9.354,9.354,0,0,0-8.972,4.2,41.044,41.044,0,0,0-2.482,16.99V76.6H29.7V57.515A51.734,51.734,0,0,1,46.5,12.08,93.351,93.351,0,0,1,99.383.244c30.353,0,50.971,5.345,61.661,16.227a61.279,61.279,0,0,1,16.227,45.435,53.07,53.07,0,0,1-5.727,28.254A51.162,51.162,0,0,1,151.118,106.195Z" transform="translate(529.143 0.013)" fill="#fdb900"/>
    <path id="Контур_19" data-name="Контур 19" d="M46.27.24H156.611V47.011h-44.1v44.1h41.235V135.78H112.513v50.78H161v46.771H46.461Z" transform="translate(837.11 4.599)" fill="#fdb900"/>
    <path id="Контур_20" data-name="Контур 20" d="M200.006.24l-23.29,103.278,35.7,130.386H150.372a738.384,738.384,0,0,1-20.045-85.524c-1.718,14.89-4.009,30.544-7.063,47.153l-6.3,38.18H52.63L76.684,103.327,52.63.24h64.334c1.145,6.491,3.436,17.181,6.872,32.262q4.2,17.181,6.872,31.5L144.454.24Z" transform="translate(952.164 4.599)" fill="#fdb900"/>
  </g>
</svg>
