<svg xmlns="http://www.w3.org/2000/svg" width="50" height="35" viewBox="0 0 51.297 33.608">
  <g id="mail" transform="translate(0 0)">
    <g id="Сгруппировать_11" data-name="Сгруппировать 11" transform="translate(0 0)">
      <path id="Контур_26" data-name="Контур 26" d="M46.788,76H4.509A4.369,4.369,0,0,0,0,80.2v25.206a4.37,4.37,0,0,0,4.509,4.2h42.28a4.368,4.368,0,0,0,4.508-4.2V80.2A4.367,4.367,0,0,0,46.788,76Zm-.631,2.8L28.836,94.855a4.745,4.745,0,0,1-6.379,0L5.14,78.8ZM3.006,104.837V80.773L15.994,92.812Zm2.136,1.97L18.125,94.787l2.21,2.048a7.909,7.909,0,0,0,10.624,0l2.213-2.051,12.983,12.021Zm43.149-1.97L35.3,92.812,48.291,80.773Z" transform="translate(0 -76)" fill="#fdb900"/>
    </g>
  </g>
</svg>
