<svg id="milling-machine" xmlns="http://www.w3.org/2000/svg" width="283.7" height="232.436" viewBox="0 0 283.7 232.436">
  <path id="Контур_42" data-name="Контур 42" d="M274.244,197.818l-1.041,0-3.688-15.446V77.576a9.959,9.959,0,0,0-6.048-9.23l-6.413-2.588-1.433-21.925a9.674,9.674,0,0,0-9.433-9.214h-.314V19.782a9.692,9.692,0,0,0-9.456-9.891H85.112A9.694,9.694,0,0,0,75.655,0H28.37a9.692,9.692,0,0,0-9.457,9.891v9.891H16.143a9.306,9.306,0,0,0-6.686,2.9L2.771,29.672A10.063,10.063,0,0,0,0,36.665V72.133a10.065,10.065,0,0,0,2.771,7l6.686,6.993a9.315,9.315,0,0,0,6.686,2.9h2.771v54.4a4.433,4.433,0,0,0,.1.532,4.252,4.252,0,0,0-.011.439l3.636,19.023a4.825,4.825,0,0,0-3.729,4.734v14.231l-3.693,15.442H14.187a9.692,9.692,0,0,0-9.457,9.891v14.837a9.691,9.691,0,0,0,9.457,9.891H274.244a9.692,9.692,0,0,0,9.457-9.891V207.708a9.694,9.694,0,0,0-9.457-9.891Zm-73.6-9.891H88.312l-5.673-14.835H209.152ZM75.655,163.2H32.245l-2.838-14.837H260.058V163.2Zm33.1-100.959-6.686,6.993H85.112V39.563h16.954l6.686,6.993Zm33.1,46.558v9.891H104.025a4.95,4.95,0,0,0,0,9.891h37.826v9.891H28.37V108.8Zm89.838,0h28.37v29.672H198.59v-9.891h33.1a4.95,4.95,0,0,0,0-9.891h-33.1V108.8ZM179.677,79.128H160.837l.186-12.381,9.2-7.387,9.457,7.577Zm-23.64,9.891h33.1v49.454H151.307V89.019Zm91.578-22.589a9.9,9.9,0,0,0,6.03,8.555l6.413,2.59V98.91h-23.64V44.51h9.766Zm-11.2-46.649V34.619a9.691,9.691,0,0,0-9.457,9.891v54.4H198.59V89.019h4.729a4.95,4.95,0,0,0,0-9.891H189.133V66.938a9.834,9.834,0,0,0-3.957-8.039l-9.71-7.783a9.188,9.188,0,0,0-10.747.19l-9.2,7.4a9.995,9.995,0,0,0-4.212,8.229V79.128H137.121a4.95,4.95,0,0,0,0,9.891h4.729V98.91H85.112V79.128h16.954a9.324,9.324,0,0,0,6.686-2.9l6.686-7h7.5a4.95,4.95,0,0,0,0-9.891h-4.729V49.454h4.729a4.95,4.95,0,0,0,0-9.891h-7.5l-6.686-6.993a9.306,9.306,0,0,0-6.686-2.9H85.112V19.782ZM28.37,9.891H75.655V98.91H28.37ZM16.143,79.129l-6.686-7V36.666l6.686-6.993h2.771V79.129Zm258.1,143.417H14.187V207.709h1.035a9.531,9.531,0,0,0,9.173-7.491l3.684-15.41a10.221,10.221,0,0,0,.292-2.434v-9.282H72.454l8.266,21.62.026.038a4.9,4.9,0,0,0,.831,1.327c.071.086.106.2.182.281a6.231,6.231,0,0,0,3.305,1.451l.048.009H203.319a4.073,4.073,0,0,0,.543-.113,3.815,3.815,0,0,0,1.755-.593A3.976,3.976,0,0,0,207,195.844a4.5,4.5,0,0,0,.37-.423l12.807-22.328h39.876v9.282a10.037,10.037,0,0,0,.284,2.4l3.688,15.449a9.529,9.529,0,0,0,9.179,7.489h1.035Zm0,0" transform="translate(-0.001 0)" fill="#152035"/>
  <path id="Контур_43" data-name="Контур 43" d="M293.24,193.947A11.64,11.64,0,1,0,281.6,182.307,11.64,11.64,0,0,0,293.24,193.947Zm0-15.52a3.88,3.88,0,1,1-3.879,3.879A3.88,3.88,0,0,1,293.24,178.428Zm0,0" transform="translate(-122.456 -68.64)" fill="#152035"/>
  <path id="Контур_44" data-name="Контур 44" d="M79.906,117.146a11.64,11.64,0,1,0-11.641-11.641A11.64,11.64,0,0,0,79.906,117.146Zm0-15.52a3.88,3.88,0,1,1-3.881,3.879A3.879,3.879,0,0,1,79.906,101.627Zm0,0" transform="translate(-37.226 -37.752)" fill="#152035"/>
  <path id="Контур_45" data-name="Контур 45" d="M80.68,41.893h7.76a3.88,3.88,0,1,0,0-7.76H80.68a3.88,3.88,0,0,0,0,7.76Zm0,0" transform="translate(-41.881 -18.613)" fill="#152035"/>
  <path id="Контур_46" data-name="Контур 46" d="M80.68,67.494h7.76a3.88,3.88,0,1,0,0-7.76H80.68a3.88,3.88,0,0,0,0,7.76Zm0,0" transform="translate(-41.881 -32.574)" fill="#152035"/>
</svg>
