<svg id="phone-call" xmlns="http://www.w3.org/2000/svg" width="50" height="50" viewBox="0 0 53.542 53.62">
  <g id="Сгруппировать_10" data-name="Сгруппировать 10">
    <path id="Контур_23" data-name="Контур 23" d="M42.682,57.52a5.274,5.274,0,0,0-3.825-1.754,5.453,5.453,0,0,0-3.87,1.743L31.41,61.073c-.294-.158-.588-.306-.871-.453-.407-.2-.792-.4-1.12-.6A38.868,38.868,0,0,1,20.1,51.533a22.931,22.931,0,0,1-3.056-4.821c.928-.849,1.788-1.731,2.625-2.58.317-.317.634-.645.951-.962a5.192,5.192,0,0,0,0-7.831L17.536,32.25c-.351-.351-.713-.713-1.052-1.075-.679-.7-1.392-1.426-2.128-2.1a5.357,5.357,0,0,0-3.791-1.664A5.543,5.543,0,0,0,6.717,29.07l-.023.023L2.847,32.974A8.279,8.279,0,0,0,.391,38.236a19.839,19.839,0,0,0,1.449,8.4A48.727,48.727,0,0,0,10.5,61.073,53.256,53.256,0,0,0,28.23,74.959,27.629,27.629,0,0,0,38.189,77.9c.238.011.487.023.713.023a8.527,8.527,0,0,0,6.53-2.807c.011-.023.034-.034.045-.057a25.726,25.726,0,0,1,1.98-2.048c.487-.464.985-.951,1.471-1.46a5.645,5.645,0,0,0,1.709-3.916,5.439,5.439,0,0,0-1.743-3.882Zm4.051,11.917c-.011,0-.011.011,0,0-.441.475-.894.905-1.381,1.381a29.754,29.754,0,0,0-2.184,2.263,5.456,5.456,0,0,1-4.255,1.8c-.17,0-.351,0-.521-.011a24.545,24.545,0,0,1-8.827-2.648,50.27,50.27,0,0,1-16.7-13.082A45.944,45.944,0,0,1,4.714,45.569a16.158,16.158,0,0,1-1.267-7.084,5.2,5.2,0,0,1,1.562-3.361l3.859-3.859a2.572,2.572,0,0,1,1.72-.8,2.421,2.421,0,0,1,1.652.792l.034.034c.69.645,1.347,1.313,2.037,2.026.351.362.713.724,1.075,1.1L18.475,37.5a2.16,2.16,0,0,1,0,3.508c-.328.328-.645.656-.973.973-.951.973-1.856,1.879-2.841,2.761-.023.023-.045.034-.057.057a2.308,2.308,0,0,0-.588,2.569l.034.1a24.8,24.8,0,0,0,3.655,5.964l.011.011A41.537,41.537,0,0,0,27.766,62.59a15.456,15.456,0,0,0,1.392.758c.407.2.792.4,1.12.6.045.023.091.057.136.079a2.453,2.453,0,0,0,1.12.283,2.42,2.42,0,0,0,1.72-.781l3.87-3.87a2.56,2.56,0,0,1,1.709-.849,2.3,2.3,0,0,1,1.63.826l.023.023,6.236,6.236A2.238,2.238,0,0,1,46.733,69.437Z" transform="translate(-0.344 -24.305)" fill="#fdb900"/>
    <path id="Контур_24" data-name="Контур 24" d="M246.2,88.956a14.564,14.564,0,0,1,11.86,11.86,1.519,1.519,0,0,0,1.505,1.267,2.028,2.028,0,0,0,.26-.023,1.529,1.529,0,0,0,1.256-1.765,17.611,17.611,0,0,0-14.35-14.35,1.536,1.536,0,0,0-1.765,1.245A1.511,1.511,0,0,0,246.2,88.956Z" transform="translate(-217.263 -76.201)" fill="#fdb900"/>
    <path id="Контур_25" data-name="Контур 25" d="M274.179,23.653A29,29,0,0,0,250.55.023a1.526,1.526,0,1,0-.5,3.01,25.9,25.9,0,0,1,21.117,21.117,1.518,1.518,0,0,0,1.505,1.267,2.021,2.021,0,0,0,.26-.023A1.5,1.5,0,0,0,274.179,23.653Z" transform="translate(-220.661 0)" fill="#fdb900"/>
  </g>
</svg>
