<svg id="Слой_1" data-name="Слой 1" xmlns="http://www.w3.org/2000/svg" viewBox="0 0 595.28 841.89"><defs><style>.cls-1{fill:#fff;}.cls-2{font-size:14px;}.cls-10,.cls-14,.cls-15,.cls-2,.cls-21,.cls-23,.cls-25,.cls-30,.cls-32,.cls-36,.cls-4,.cls-9{font-family:MyriadPro-Regular, Myriad Pro;}.cls-3{letter-spacing:0.01em;}.cls-4{font-size:18px;}.cls-5{letter-spacing:-0.09em;}.cls-6{letter-spacing:-0.01em;}.cls-7{letter-spacing:-0.02em;}.cls-8{letter-spacing:0em;}.cls-9{font-size:39px;letter-spacing:0.01em;}.cls-10{font-size:19px;letter-spacing:0.01em;}.cls-11{letter-spacing:0.01em;}.cls-12{letter-spacing:0.03em;}.cls-13{letter-spacing:0.01em;}.cls-14,.cls-15,.cls-21,.cls-23,.cls-30,.cls-32{font-size:12px;}.cls-14,.cls-20{letter-spacing:0.01em;}.cls-15,.cls-45{letter-spacing:0.01em;}.cls-16{letter-spacing:0.01em;}.cls-17,.cls-23{letter-spacing:0em;}.cls-18{letter-spacing:-0.01em;}.cls-19{letter-spacing:0.01em;}.cls-21{letter-spacing:-0.01em;}.cls-22{letter-spacing:0em;}.cls-24,.cls-30{letter-spacing:0.01em;}.cls-25{font-size:10px;letter-spacing:0.01em;}.cls-26{letter-spacing:0.02em;}.cls-27{letter-spacing:0.01em;}.cls-28{letter-spacing:0.01em;}.cls-29{letter-spacing:0.01em;}.cls-31{letter-spacing:0em;}.cls-32{letter-spacing:-0.02em;}.cls-33{letter-spacing:0em;}.cls-34{letter-spacing:0em;}.cls-35{letter-spacing:0em;}.cls-36{font-size:19.44px;letter-spacing:-0.01em;}.cls-37{letter-spacing:0.01em;}.cls-38{letter-spacing:0em;}.cls-39{letter-spacing:0.01em;}.cls-40{letter-spacing:0em;}.cls-41{letter-spacing:0.01em;}.cls-42{letter-spacing:0.01em;}.cls-43{letter-spacing:0.02em;}.cls-44{letter-spacing:0.01em;}</style></defs><path d="M40.8,450.86c.45-1.53.5-3.18.86-4.74a2.72,2.72,0,0,1,1-1.62c3-1.85,3.83-5.13,4.71-8.08a84.68,84.68,0,0,0,2.27-12c.87-5.79,1.42-11.64,5.47-16.4a4.74,4.74,0,0,0,.95-3.09c-.24-4.34-.26-8.75-1.14-13-2-9.89-2.33-19.61,1-29.28,2.06-5.95,4-11.94,6.09-18.15-1.45.17-3.15.27-4.82.57-9.94,1.82-19.9,3.46-30.07,2.32v-6c.88-.06,1.75-.18,2.62-.16,17.17.35,33.87-3,50-8.16,8.59-2.74,16.1-8.77,24.21-13.11,2.21-1.19,4.85-2.44,7.22-2.31,9.17.53,16.76-2.49,23.52-8.56,5.92-5.31,12.13-10.3,18.3-15.34,3.55-2.9,7.53-5.32,10.83-8.46,8.2-7.83,16-16.1,25.76-22.07,2.58-1.58,5-3.4,8-5.48-5.62-2.85-9.52-4.79-14.21-7.29-9.63-5.12-19.38-10-29.1-15-9-4.57-17-10.25-22.59-18.88-1.06-1.64-2.17-3.92-3.75-4.46-7.92-2.7-14.28-9.05-23.36-9.17-11.44-.14-23.14-2.79-34.24-1.13C56,204,41.59,204.13,27.17,204.9v-6.75c4.38-.05,8.75-.23,13.12-.1,9.42.27,18.62-1.05,27.85-2.84a64.54,64.54,0,0,1,16.78-.75c9.07.65,18.12,1.91,27.12,3.27,2.73.41,5.34,1.85,7.9,3,3.16,1.46,6,3.63,9.32,4.63,4.72,1.42,6,5.67,8.56,8.86,2.46,3,5.29,5.68,8,8.51l.92-.36c0-3.52.4-7.1-.07-10.56-1.24-9,2.6-16.63,6.11-24.29S157.9,172,156.2,164.3a26,26,0,0,0-7.73-13.37c-12.55-11.42-24.64-23.34-36.95-35-1.55-1.47-2-2.6-.2-4.29s2.79-2.41,4.88-.37c12.43,12.11,25,24.06,37.48,36.13,2,1.89,3.57,3.26,6.32,1.12.74-.58,3.58-.06,3.68.37,1.53,6.45,7.52,8.2,11.88,11.63,3.7,2.91,7.46,5.75,11.59,8.93,0-5.43.28-10.46-.05-15.45q-1.38-21.12-3.24-42.21a6.33,6.33,0,0,0-2.52-4c-7.08-4.94-9.76-14.65-4.06-20.06,5.33-5,12.36-8.28,18.64-12.31l.78,1.19-8.21,5.09A61.15,61.15,0,0,1,195.11,86a13.57,13.57,0,0,1-2.1,22.17c-2,1.08-2.62,2.24-2.5,4.36,1,16.58,1.93,33.17,2.9,49.75.3,5.1.56,10.22,1.08,15.3.33,3.26.59,6.48,3.22,9.22,1.07,1.11,1.16,4.15.48,5.81-2.61,6.28-.56,12.54-.53,18.8,0,.62.67,1.34,1.2,1.83,2.95,2.73,3.45,5.53,1.62,9.38-.85,1.78-.1,4.68.67,6.81a212.72,212.72,0,0,0,8.2,20.51,22.69,22.69,0,0,0,10.24,10.62c11.33,5.92,23.6,5.73,35.67,7.12,12.51,1.44,25,2.82,37.54,4.34,3.78.45,6.84.86,9.49-3.35,1.54-2.45,5.75-3.49,8.89-4.52a3.93,3.93,0,0,0,2.71-3.33,37.05,37.05,0,0,1,1.25-7c1.2-3.86,2.24-7.92,4.3-11.33A46,46,0,0,0,326.06,216a54.11,54.11,0,0,1,3.33-21.29c.59-1.6,1.3-3.51,2.57-4.43,8.5-6.17,12.67-15.57,18.48-23.8,6.56-9.3,7.38-20.26,10-30.69,3.43-13.54,6.42-27.19,9.57-40.81a17.67,17.67,0,0,0,.38-3.7,100,100,0,0,1,2.75-27.48c1-3.81,0-6-3.71-8-7.23-3.9-13.85-8.93-21.1-12.79a181.8,181.8,0,0,0-19.85-8.56c-5.35-2.08-5.43-1.87-2.91-7.5,18.22,3.45,32.84,14.32,48.74,24.4.2-2,.41-3.27.44-4.53.23-10.62.46-21.24.61-31.86,0-2.32.44-3.76,3.3-3.7,2.34,0,3.08.91,3,3.1-.59,21.17.6,42.46-4.87,63.26a3.41,3.41,0,0,0-.09,1.19c1.11,11.82-2.24,23-4.93,34.25-3.59,15-6.37,30.31-10.33,45.26-1.42,5.36-5.16,10.15-8.07,15.06a102.63,102.63,0,0,1-16.33,21.19c-3.06,3-3.55,8.82-4.73,13.48-.58,2.33-.1,4.93-.1,7.95l6.91-.49c6.6-.49,13.19-1,19.8-1.42a9,9,0,0,1,4.22.91c2,1,3.76,2.5,5.76,3.5,4.47,2.22,6.86,5.38,5.79,10.64-.75,3.68,1.37,4.63,6.48,3.81a41.3,41.3,0,0,1,14.75.13c5.34,1.1,6.93-.25,7.93-3.77,2-6.84,4.33-13.56,6.15-20.43,3-11.18,10-20.31,15.11-30.39,5.31-10.5,11.2-20.7,17.52-30.64,6-9.38,4.35-10.5,10.92-6-3.78,6.67-7.56,13.38-11.39,20.07-7.69,13.44-16,26.56-22.88,40.4-4.07,8.16-5.93,17.43-8.75,26.21-.45,1.41-.77,2.85-1.28,4.79,1.88.11,3.45.13,5,.3,18.81,2.05,37.05-1.59,55.22-5.69,2.94-.66,5.22-.39,7.61,1.48,3.14,2.46,6.6,4.49,9.79,6.89,1.71,1.28,2.9,1.3,4.69-.41a50.55,50.55,0,0,1,5.77-4.62c7-5,6.58-6.21,9.86-.2-5.61,4.56-11.25,9.24-17.05,13.72-.6.45-2.37,0-3.24-.62-4-2.71-8.09-5.44-11.87-8.49-3.06-2.47-6.07-1.88-10-.55a46.67,46.67,0,0,1-12.26,2.46c-4.66.27-5.42,1.5-4.52,4.54a31.67,31.67,0,0,1,1.56,7.32,15.75,15.75,0,0,1-1,7c-2.45,5.44-2.65,5.35-8.83,4.47,1.23-3.38,3.28-6.73,3.48-10.19s-1.46-7-2.37-10.77c-10.66,0-21.13-.08-31.6.11-1.13,0-2.73,1.42-3.25,2.56-2.12,4.63-4,9.37-5.78,14.13-1.59,4.25-4.5,5.39-8.93,4.08l9.3-20.68a20.22,20.22,0,0,0-2.77-.64c-22-.57-43.95-1.06-65.92-1.73-2.57-.08-3.38,1.06-4.78,2.94-4.67,6.28-6,13.58-7.53,20.89-.46,2.17-.3,3.63,1.78,5.06a13.57,13.57,0,0,1,5.82,9.26c.18,1.1,1.14,2.69,2,2.95,11.39,3.22,22.86,6.16,34.25,9.36a75.25,75.25,0,0,1,10.05,3.88c4,1.78,6.95.69,7-3.57,0-5.39,3-9.43,4.91-14,1.56-3.68,3.42-4,7.2-1.3-.51,1.17-1.08,2.37-1.57,3.62-1.79,4.58-4.7,8.71-4.62,14,0,1.82-1.86,3.67-3,5.75,3.43,2.46,7,4.82,10.34,7.48,4.68,3.73,8.93,8.05,13.81,11.46,5.78,4,11.74,7.84,19.4,7.77,5.28-.05,10.57.87,16,1.38-.25-7,.42-14.46-2.93-21.47a1.74,1.74,0,0,1-.23-.71c.36-5.83-1.71-10.08-7.21-12.84-1.19-.59-1.67-3.57-1.63-5.43a34,34,0,0,1,1.46-9.92c.4-1.19,3.09-1.6,4.74-2.36a20,20,0,0,1,1,3.64,9,9,0,0,1-.62,2.9c-1.31,4.82-.41,8.53,4.79,10.41,2.58.93,3.15,3,3.11,5.7a53,53,0,0,0,1.11,8.79c.77,5,1.78,10,2.36,15,.45,3.95,4.63,9.6,8.61,10,15.12,1.66,30.26,3.07,45.41,4.47,1,.09,2.79-.44,3.14-1.18,1.37-2.94,3.51-1.59,5-.84.7.35.94,2.55.69,3.77-1.78,8.79-8,14.81-13.89,20.81-3.42,3.48-7.82,6-11.79,8.93-1.07.8-2.14,1.6-4.28,3.18l2.31.88c11,4.45,17.79,14.34,27,21.08,1.14.84,1.81,2.37,2.56,3.66,2.74,4.68,6,8.66,10.92,11.41,3.92,2.2.92-4.41,14.71,21.76a8.39,8.39,0,0,1,.87,2.41c.16.86,1,2-.72,1.8l-.41-.3-21-23.09a48.47,48.47,0,0,1-7-7.28c-8.56-11-18.46-20.31-30.92-26.7-1.25-.64-3.06-1.19-4.24-.76-8.34,3-15.45-.91-21.92-4.7-16-9.4-33.39-14.26-51.26-18.08-4.49-1-8.87-2.47-13.34-3.61-4.82-1.23-9.63-3-14.53-3.3-8.24-.54-15.39-3.87-22.69-7.1a16.6,16.6,0,0,0-5-1.13c-7.8-.83-15.61-1.56-23.41-2.32l-18.4-1.76c1.44,6,2.56,11.25,4,16.43,2.15,7.54,5,14.83,4.74,23-.09,2.45,2.43,5,3.8,7.5.64,1.17,1.4,2.28,2.08,3.37-4.19,3.75-4.2,3.44-7.41-.68a21.41,21.41,0,0,1-4.76-16.44,8.07,8.07,0,0,0-.29-3.24c-2.52-8.74-5.2-17.45-7.65-26.22-.71-2.53-2.06-2.7-4.38-2.61-18.45.76-35.17,7.89-52.31,13.65-13.14,4.42-26.41,8.36-38.4,15.55A63.26,63.26,0,0,0,199,365c-7.48,5.78-14.81,11.77-22.38,17.44a55.91,55.91,0,0,1-9.69,5.61c-5.41,2.56-8.82,7.07-13,12,7.28.94,13.91,1.64,20.49,2.69,10.19,1.64,20.51,2.88,30.45,5.51,6.89,1.83,13.29,5.58,19.74,8.81.88.44,1.18,3,.92,4.35-.13.7-2.37,1.76-3.24,1.45-4.45-1.58-8.71-3.67-13.13-5.36-5.29-2-10.53-4.71-16-5.57-13.13-2.07-26.5-2.73-39.58-5-5.65-1-7.06,2-9.28,5.39-2.66,4.05-5.7,7.87-8.27,12a15.72,15.72,0,0,0-2,6c-.69,4.93-1.95,8.47-5.59,11.58l-6.7,5.86-19.13.24M62.25,369.9c-3.28,8.58-.93,16.28.23,24,.13.9,2,2.13,3.17,2.17,6.1.23,12.21.07,18.32.17,20.08.33,40.16.75,60.25,1a7.13,7.13,0,0,0,4.44-1.84c3.84-3.54,6.79-8.68,11.23-10.8,11.16-5.35,19.7-14.06,29.64-20.9A172.43,172.43,0,0,1,214.58,349c8.77-4.06,18.26-6.57,27.42-9.78,8.12-2.85,16.08-6.31,24.38-8.45,8.89-2.29,18.08-3.55,27.19-4.86,3.14-.45,4.77-1,4.42-4.63-.37-3.84.09-7.76-.24-11.61-.52-6.08.35-11.64,4.59-16.32,2-2.17,1.7-3.87-.43-6-1.57-1.6-2.06-4.2-3.35-6.14-.75-1.14-2-2.55-3.22-2.68-17.23-1.9-34.49-3.57-51.73-5.36-4.83-.5-9.8-.61-14.41-1.94-7.95-2.3-14.72-8.47-23.75-7.34-2.22.27-4.65.23-6.58,1.16-9.32,4.51-16.53,11.9-24.22,18.6-4,3.5-7,8.44-11.46,11.15-9.16,5.59-16.82,12.82-24.71,19.87-6.21,5.54-13.31,9.53-21.74,9.51-5.47,0-9.7,1.86-14.14,4.69-6,3.85-12.29,7.82-19,10.08-6.19,2.09-11.66,4.4-15,10.1-3.88,6.7-7.64,13.55-5,21.8.06.18-.1.44-.52,2Zm441.4-30.11c-7.07-.51-13.25-.82-19.4-1.43-15.54-1.53-31-3.48-46.1-7.71a27.67,27.67,0,0,0-9.22-1.09c-10.52.66-18.65-4.46-26.47-10.33-7-5.3-13.65-11.21-20.9-16.21-12.26-8.45-27-10.82-40.78-15.48A62.84,62.84,0,0,0,329.16,285a5.33,5.33,0,0,0-3.93,1.77c-3.42,3.85-7.37,6.16-12.7,6.08a5.72,5.72,0,0,0-4,1.93c-3.51,4.37-5.65,9.19-4.83,15.14a70.26,70.26,0,0,1,.15,11.61c-.07,2.24.54,3.21,2.85,3.34,3.59.21,7.19.3,10.78.61q15.93,1.38,31.82,3.1a18.36,18.36,0,0,1,4.69,1.13c5,2,9.81,5.14,15,5.88a210.79,210.79,0,0,1,29.84,6.84c9.91,2.93,20.15,4.82,30,8,8.36,2.72,16.35,6.58,24.43,10.08,4.57,2,8.94,4.39,13.51,6.33,3.47,1.48,6.62.9,9.57-1.87a37.52,37.52,0,0,1,8.32-6C492.89,354.71,497.74,347.28,503.65,339.79Zm-301-86.74c.43-.61.59-.73.56-.8-3.12-8.9-5.11-18.47-9.8-26.44-3-5-4-8.44-2.43-14,1.17-4.23-.05-9.15-.4-13.75a5.75,5.75,0,0,0-1.48-3.19c-3-3.32-3.31-5.46-.91-9.26,1.24-2,.55-6.71-1.22-8.16-3.47-2.84-6.85-5.81-10.46-8.44-4.16-3-8.53-5.74-13.48-9,0,3.77.31,6.52-.06,9.17-.89,6.38-1,13.18-3.43,19-3.71,8.87-7.55,17.37-6.25,27.34a50.06,50.06,0,0,1,.41,9c-.13,2.64.89,3.86,3.1,5,11.21,5.7,22.32,11.6,33.48,17.38C194.43,249,198.61,251,202.67,253.05Zm165.26-20.12c1.19-6.85-3.78-12.68-10.11-12.36-5.84.29-11.66,1-17.51,1.34-8.44.45-8.45.35-9,8.8,0,.2.22.42.51.94Zm-46.2,45.56a8.38,8.38,0,0,0-8.92-8.48c-4.7.14-8.71,4.19-8.6,8.67.1,4.05,4.44,8,8.85,8.06C318,286.8,321.76,283.26,321.73,278.49Z"/><path class="cls-1" d="M40.8,450.86c.45-1.53.5-3.18.86-4.74a2.72,2.72,0,0,1,1-1.62c3-1.85,3.83-5.13,4.71-8.08a84.68,84.68,0,0,0,2.27-12c.87-5.79,1.42-11.64,5.47-16.4a4.74,4.74,0,0,0,.95-3.09c-.24-4.34-.26-8.75-1.14-13-2-9.89-2.33-19.61,1-29.28,2.06-5.95,4-11.94,6.09-18.15-1.45.17-3.15.27-4.82.57-9.94,1.82-19.9,3.46-30.07,2.32"/><path class="cls-1" d="M62.25,369.9l.9,2.87c.42-1.55.58-1.81.52-2-2.68-8.25,1.08-15.1,5-21.8,3.31-5.7,8.78-8,15-10.1,6.71-2.26,13-6.23,19-10.08,4.44-2.83,8.67-4.71,14.14-4.69,8.43,0,15.53-4,21.74-9.51,7.89-7.05,15.55-14.28,24.71-19.87,4.43-2.71,7.44-7.65,11.46-11.15,7.69-6.7,14.9-14.09,24.22-18.6,1.93-.93,4.36-.89,6.58-1.16,9-1.13,15.8,5,23.75,7.34,4.61,1.33,9.58,1.44,14.41,1.94,17.24,1.79,34.5,3.46,51.73,5.36,1.18.13,2.47,1.54,3.22,2.68,1.29,1.94,1.78,4.54,3.35,6.14,2.13,2.16,2.38,3.86.43,6-4.24,4.68-5.11,10.24-4.59,16.32.33,3.85-.13,7.77.24,11.61.35,3.62-1.28,4.18-4.42,4.63-9.11,1.31-18.3,2.57-27.19,4.86-8.3,2.14-16.26,5.6-24.38,8.45-9.16,3.21-18.65,5.72-27.42,9.78a172.43,172.43,0,0,0-25.05,14.69c-9.94,6.84-18.48,15.55-29.64,20.9-4.44,2.12-7.39,7.26-11.23,10.8a7.13,7.13,0,0,1-4.44,1.84c-20.09-.24-40.17-.66-60.25-1-6.11-.1-12.22.06-18.32-.17-1.13,0-3-1.27-3.17-2.17C61.32,386.18,59,378.48,62.25,369.9Zm185-50.26c1.61-1.53,2.59-2.56,3.67-3.45s2.31-1.7,3.45-2.53c1.46,3.15,4.75,3.5,8.22,1.09l2.68,1.17a59.29,59.29,0,0,0,1.87-5.85,2.36,2.36,0,0,0-1.12-2,4.48,4.48,0,0,0-6.37,3.94,8.73,8.73,0,0,1-.81,2.31l-.61-.23.34-5.91-1.54-1c-.49,1.4-1,2.79-1.48,4.18l-.75-1-2.06-2.17a29.47,29.47,0,0,0-1.79,2.85,18.76,18.76,0,0,0-.89,2.78l-.88-.22c.33-2,.74-4.07,1-6.13.06-.59-.44-1.24-.69-1.86-.64.43-1.61.73-1.84,1.31-.59,1.5-.63,3.22-1.3,4.66-.41.88-1.59,1.4-2.42,2.08a22.09,22.09,0,0,1,.08-6c0-.67-.6-1.39-.92-2.09-.62.48-1.64.86-1.8,1.46-.72,2.84-1.2,5.75-1.73,8.43C242.13,317.57,246.7,313.85,247.27,319.64Zm42.67-3.29,1.28-1.09a37.31,37.31,0,0,0-1-6.72c-.12-.36-3.61-.46-4.21.33-1.1,1.45-2.16,4.22-1.47,5.39S288.05,315.7,289.94,316.35Zm-17.45-5.82-2.62-2.44a21.61,21.61,0,0,0-1.54,3.13,39.73,39.73,0,0,0-.84,4.24l1,.71,2.58-2.31,3.86,1.2c.4-2.25.81-4.51,1.21-6.77l-1.2-.38ZM99.87,377.73,89.6,376.67l-8,3.77H92.37c-.18-.58-.39-1.21-.86-2.69l7,3.86Zm183.85-69.1c-1.36-.19-3-.46-4.62-.59a1.47,1.47,0,0,0-1.2.68c-.53,2.25-.93,4.53-1.28,6.32h5.55C282.72,312.8,283.25,310.58,283.72,308.63ZM128.15,376.06c-1.53,2.23-2.83,4.12-4.6,6.68l9.12-2.91ZM106,384.45l0-.64H98.78v.64Z"/><path class="cls-1" d="M503.65,339.79c-5.88,7.45-10.71,14.84-18.9,19.14a39.22,39.22,0,0,0-8.46,6.08c-3,2.77-6.1,3.35-9.57,1.87-4.57-1.94-8.94-4.35-13.51-6.33-8.08-3.5-16.07-7.36-24.43-10.08-9.81-3.2-20-5.09-30-8A210.79,210.79,0,0,0,369,335.61c-5.14-.73-9.91-3.89-14.9-5.85a17.87,17.87,0,0,0-4.66-1.15c-8.78-.93-17.57-1.82-26.37-2.62-5.34-.48-10.69-.93-16.05-1.08-2.54-.07-3.2-1-3.13-3.36a70.26,70.26,0,0,0-.15-11.61c-.82-5.95,1.32-10.77,4.83-15.14a5.72,5.72,0,0,1,4-1.93c5.33.08,9.28-2.23,12.7-6.08a5.33,5.33,0,0,1,3.93-1.77,62.84,62.84,0,0,1,11.62,2.52c13.79,4.66,28.52,7,40.78,15.48,7.25,5,13.86,10.91,20.9,16.21,7.72,5.8,15.76,10.87,26.08,10.35a29.1,29.1,0,0,1,9.25,1c15.22,4.29,30.8,6.26,46.46,7.81C490.4,339,496.58,339.28,503.65,339.79Z"/><path class="cls-1" d="M81.65,453.35c-3.47-3.83-8.31-2.89-13-2.4l3.6,1.92c-3.62.45-6.46,1.6-8.74.9"/><path class="cls-1" d="M87.81,444.49c.7,1,1.2,2.32,2.16,2.9"/><path class="cls-1" d="M115.29,445.55c.54.44,3.2.18,3.44.36,2.26,1.66,2.94-4.52,5-6.54.89-5.18,1.54-11.47,5.46-15.47s6.64-9,10.54-14.49c-3.5,0-5.6,0-7.7,0-6.84-.11-13.68-.22-20.52-.37-16.08-.35-32.16-.74-48.24-1-.74,0-2.22,1.29-2.13,1.72.84,3.82-1.49,6.47-3.28,9.23-3.6,5.52-2.42,11.87-4,17.72l.89.26,1.12-2.12c-1.87,2.24-2.46,1.36-1.89,5.32-.38,1.43,2.32-1.1,1.57-.87-3.1,1-2.55,3.58-3.31,5.66-1.06,2.9-2.31,5.73-3.56,8.55"/><path class="cls-1" d="M202.67,253.05c-4.06-2-8.24-4.06-12.37-6.2-11.16-5.78-22.27-11.68-33.48-17.38-2.16-1.1-3.19-2.29-3.11-4.81a68.57,68.57,0,0,0-.46-9.71c-1.1-9.73,2.67-18.09,6.31-26.79,2.43-5.79,2.54-12.59,3.43-19,.37-2.65.06-5.4.06-9.17,4.95,3.29,9.32,6,13.48,9,3.61,2.63,7,5.6,10.46,8.44,1.77,1.45,2.46,6.2,1.22,8.16-2.4,3.8-2.12,5.94.91,9.26a5.75,5.75,0,0,1,1.48,3.19c.35,4.6,1.57,9.52.4,13.75-1.53,5.52-.54,8.92,2.43,14,4.69,8,6.68,17.54,9.8,26.44C203.26,252.32,203.1,252.44,202.67,253.05Z"/><path class="cls-1" d="M367.93,232.93l-36.11-1.28c-.29-.52-.52-.74-.51-.94.55-8.45.56-8.35,9-8.8,5.85-.3,11.67-1,17.51-1.34C364.15,220.25,369.12,226.08,367.93,232.93Z"/><path class="cls-1" d="M321.73,278.49c0,4.77-3.7,8.31-8.67,8.25-4.41-.06-8.75-4-8.85-8.06-.11-4.48,3.9-8.53,8.6-8.67A8.38,8.38,0,0,1,321.73,278.49Z"/><path class="cls-1" d="M385.11,354.93c.49,7.6-.89,9.48-6,8C381.26,360.4,379.5,355.38,385.11,354.93Z"/><text class="cls-2" transform="translate(291.22 54.04)">Вишнев<tspan class="cls-3" x="47.33" y="0">к</tspan><tspan x="54.18" y="0">а</tspan></text><text class="cls-4" transform="translate(197.62 80.78)">д. <tspan class="cls-5" x="17.08" y="0">Г</tspan><tspan class="cls-6" x="23.22" y="0">о</tspan><tspan class="cls-7" x="32.96" y="0">т</tspan><tspan class="cls-8" x="40" y="0">овино</tspan></text><text class="cls-9" transform="translate(297.64 452.24) scale(1.06 1)">МИНСК</text><text class="cls-10" transform="translate(343.47 363.41) scale(1.06 1)">М<tspan class="cls-11" x="15.43" y="0">К</tspan><tspan class="cls-12" x="25.97" y="0">А</tspan><tspan class="cls-13" x="38.25" y="0">Д</tspan></text><text class="cls-14" transform="translate(321.73 384.13) scale(1.06 1)">новинки</text><text class="cls-15" transform="translate(229.68 415.12) scale(1.06 1)">пр. Поб<tspan class="cls-16" x="39.61" y="0">е</tspan><tspan x="45.75" y="0">д</tspan><tspan class="cls-17" x="52.21" y="0">и</tspan><tspan class="cls-18" x="58.92" y="0">т</tspan><tspan class="cls-19" x="63.71" y="0">е</tspan><tspan class="cls-20" x="69.87" y="0">лей</tspan></text><text class="cls-21" transform="translate(79.95 163.47) scale(1.06 1)">С<tspan class="cls-20" x="6.86" y="0">ем</tspan><tspan class="cls-22" x="20.74" y="0">к</tspan><tspan class="cls-20" x="26.51" y="0">овое</tspan></text><text class="cls-23" transform="translate(208.04 188) scale(1.06 1)">Ч<tspan class="cls-24" x="7.22" y="0">учаны</tspan></text><text class="cls-25" transform="translate(271.85 231.61) scale(1.06 1)">д<tspan class="cls-26" x="5.35" y="0">у</tspan><tspan class="cls-27" x="10.22" y="0">бо</tspan><tspan class="cls-28" x="21.15" y="0">в</tspan><tspan class="cls-29" x="26.3" y="0">л</tspan><tspan class="cls-27" x="31.49" y="0">яны</tspan></text><text class="cls-30" transform="translate(38.12 262.52) scale(1.06 1)">Минс<tspan class="cls-31" x="28.61" y="0">к</tspan><tspan class="cls-20" x="34.38" y="0">ое море</tspan></text><text class="cls-32" transform="translate(208.46 217.51) scale(1.06 1)">С<tspan class="cls-33" x="6.76" y="0">у</tspan><tspan class="cls-24" x="12.44" y="0">м</tspan><tspan class="cls-22" x="20.21" y="0">к</tspan><tspan class="cls-20" x="25.98" y="0">ово </tspan><tspan class="cls-18" x="48.08" y="0">г</tspan><tspan class="cls-20" x="52.56" y="0">ор</tspan><tspan class="cls-34" x="66.17" y="0">о</tspan><tspan class="cls-35" x="72.77" y="0">д</tspan><tspan class="cls-20" x="79.18" y="0">ок</tspan></text><text class="cls-36" transform="translate(337.48 271.41) scale(0.87 1)">С<tspan class="cls-37" x="11.12" y="0">еверное </tspan><tspan class="cls-38" x="87.79" y="0">к</tspan><tspan class="cls-39" x="97.14" y="0">о</tspan><tspan class="cls-37" x="108.05" y="0">ль</tspan><tspan class="cls-40" x="127.9" y="0">ц</tspan><tspan class="cls-41" x="138.67" y="0">о</tspan></text><text class="cls-15" transform="translate(391.2 295.32) scale(1.06 1)">Цна</text><text class="cls-14" transform="translate(248.79 311.5) scale(1.06 1)">Ц<tspan class="cls-42" x="7.92" y="0">н</tspan><tspan x="14.62" y="0">ян</tspan><tspan class="cls-43" x="27.31" y="0">к</tspan><tspan x="33.28" y="0">а</tspan></text><text class="cls-14" transform="translate(468.42 313.44) scale(1.06 1)">Боров<tspan class="cls-44" x="33.04" y="0">а</tspan><tspan class="cls-45" x="39" y="0">я</tspan></text><text class="cls-14" transform="translate(233.21 253.02) scale(1.06 1)">Приморье</text></svg>