<svg id="sketch" xmlns="http://www.w3.org/2000/svg" width="232.799" height="232.66" viewBox="0 0 232.799 232.66">
  <g id="Сгруппировать_38" data-name="Сгруппировать 38" transform="translate(19.399 38.66)">
    <g id="Сгруппировать_37" data-name="Сгруппировать 37">
      <path id="Контур_47" data-name="Контур 47" d="M57.214,85.179a14.55,14.55,0,0,0-14.55,14.55v38.8h9.7v-38.8a4.85,4.85,0,0,1,4.85-4.85h116.4v-9.7Z" transform="translate(-42.664 -85.179)" fill="#152035"/>
    </g>
  </g>
  <g id="Сгруппировать_40" data-name="Сгруппировать 40" transform="translate(19.399 130.81)">
    <g id="Сгруппировать_39" data-name="Сгруппировать 39">
      <path id="Контур_48" data-name="Контур 48" d="M57.214,341.2a4.85,4.85,0,0,1-4.85-4.85v-48.5h-9.7v48.5a14.55,14.55,0,0,0,14.55,14.55h48.5v-9.7Z" transform="translate(-42.664 -287.845)" fill="#152035"/>
    </g>
  </g>
  <g id="Сгруппировать_42" data-name="Сгруппировать 42" transform="translate(0 77.461)">
    <g id="Сгруппировать_41" data-name="Сгруппировать 41">
      <path id="Контур_49" data-name="Контур 49" d="M153.778,289.721,35.991,171.934a4.85,4.85,0,0,0-6.858,0L1.42,199.647a4.85,4.85,0,0,0,0,6.858L119.207,324.292a4.847,4.847,0,0,0,6.858,0l27.713-27.713A4.85,4.85,0,0,0,153.778,289.721Zm-31.142,24.284L11.707,203.076l20.855-20.855,110.929,110.93Z" transform="translate(0 -170.514)" fill="#152035"/>
    </g>
  </g>
  <g id="Сгруппировать_44" data-name="Сгруппировать 44" transform="translate(140.649 184.161)">
    <g id="Сгруппировать_43" data-name="Сгруппировать 43">
      <path id="Контур_50" data-name="Контур 50" d="M382.081,405.179h-72.75v9.7h53.35v24.25a4.85,4.85,0,0,0,4.85,4.85h14.55a19.4,19.4,0,1,0,0-38.8Zm0,29.1h-9.7v-19.4h9.7a9.7,9.7,0,0,1,0,19.4Z" transform="translate(-309.331 -405.179)" fill="#152035"/>
    </g>
  </g>
  <g id="Сгруппировать_46" data-name="Сгруппировать 46" transform="translate(189.149 38.66)">
    <g id="Сгруппировать_45" data-name="Сгруппировать 45">
      <path id="Контур_51" data-name="Контур 51" d="M440.248,85.179H416v9.7h24.25a9.7,9.7,0,0,1,9.7,9.7v145.5h9.7v-145.5A19.4,19.4,0,0,0,440.248,85.179Z" transform="translate(-415.998 -85.179)" fill="#152035"/>
    </g>
  </g>
  <g id="Сгруппировать_48" data-name="Сгруппировать 48" transform="translate(74.171 137.08)">
    <g id="Сгруппировать_47" data-name="Сгруппировать 47" transform="translate(0 0)">
      <rect id="Прямоугольник_6" data-name="Прямоугольник 6" width="20.579" height="9.7" transform="translate(0 14.551) rotate(-45)" fill="#152035"/>
    </g>
  </g>
  <g id="Сгруппировать_50" data-name="Сгруппировать 50" transform="translate(54.771 117.68)">
    <g id="Сгруппировать_49" data-name="Сгруппировать 49" transform="translate(0 0)">
      <rect id="Прямоугольник_7" data-name="Прямоугольник 7" width="20.579" height="9.7" transform="translate(0 14.551) rotate(-45)" fill="#152035"/>
    </g>
  </g>
  <g id="Сгруппировать_52" data-name="Сгруппировать 52" transform="translate(93.56 156.481)">
    <g id="Сгруппировать_51" data-name="Сгруппировать 51" transform="translate(0 0)">
      <rect id="Прямоугольник_8" data-name="Прямоугольник 8" width="20.579" height="9.7" transform="translate(0 14.551) rotate(-45)" fill="#152035"/>
    </g>
  </g>
  <g id="Сгруппировать_54" data-name="Сгруппировать 54" transform="translate(112.969 175.89)">
    <g id="Сгруппировать_53" data-name="Сгруппировать 53" transform="translate(0 0)">
      <rect id="Прямоугольник_9" data-name="Прямоугольник 9" width="20.579" height="9.7" transform="translate(0 14.551) rotate(-45)" fill="#152035"/>
    </g>
  </g>
  <g id="Сгруппировать_56" data-name="Сгруппировать 56" transform="translate(35.358 98.28)">
    <g id="Сгруппировать_55" data-name="Сгруппировать 55" transform="translate(0 0)">
      <rect id="Прямоугольник_10" data-name="Прямоугольник 10" width="20.579" height="9.7" transform="translate(0 14.551) rotate(-45)" fill="#152035"/>
    </g>
  </g>
  <g id="Сгруппировать_58" data-name="Сгруппировать 58" transform="translate(107.059 0)">
    <g id="Сгруппировать_57" data-name="Сгруппировать 57">
      <path id="Контур_52" data-name="Контур 52" d="M337.6,10.916l-6.7-6.7a14.676,14.676,0,0,0-20.268,0L236.876,77.962a4.85,4.85,0,0,0,0,6.858l20.113,20.113a4.848,4.848,0,0,0,6.858,0L337.6,31.184l.007-.007A14.327,14.327,0,0,0,337.6,10.916Zm-6.853,13.406L260.418,94.646,247.163,81.391l70.325-70.32a4.739,4.739,0,0,1,6.548,0l6.708,6.7,0,0A4.632,4.632,0,0,1,330.743,24.321Z" transform="translate(-235.456 -0.153)" fill="#152035"/>
    </g>
  </g>
  <g id="Сгруппировать_60" data-name="Сгруппировать 60" transform="translate(96.998 79.706)">
    <g id="Сгруппировать_59" data-name="Сгруппировать 59">
      <path id="Контур_53" data-name="Контур 53" d="M246.794,192.5l-20.932,6.989,6.989-20.967-9.215-3.07-10.059,30.172a4.849,4.849,0,0,0,4.6,6.382,4.925,4.925,0,0,0,1.513-.233l30.172-10.059Z" transform="translate(-213.328 -175.451)" fill="#152035"/>
    </g>
  </g>
  <g id="Сгруппировать_62" data-name="Сгруппировать 62" transform="translate(168.816 17.466)">
    <g id="Сгруппировать_61" data-name="Сгруппировать 61">
      <rect id="Прямоугольник_11" data-name="Прямоугольник 11" width="9.7" height="28.445" transform="translate(0 6.859) rotate(-45)" fill="#152035"/>
    </g>
  </g>
  <g id="Сгруппировать_64" data-name="Сгруппировать 64" transform="translate(101.849 106.56)">
    <g id="Сгруппировать_63" data-name="Сгруппировать 63">
      <rect id="Прямоугольник_12" data-name="Прямоугольник 12" width="72.75" height="9.7" fill="#152035"/>
    </g>
  </g>
  <g id="Сгруппировать_66" data-name="Сгруппировать 66" transform="translate(184.299 106.56)">
    <g id="Сгруппировать_65" data-name="Сгруппировать 65">
      <rect id="Прямоугольник_13" data-name="Прямоугольник 13" width="9.7" height="9.7" fill="#152035"/>
    </g>
  </g>
  <g id="Сгруппировать_68" data-name="Сгруппировать 68" transform="translate(203.699 106.56)">
    <g id="Сгруппировать_67" data-name="Сгруппировать 67">
      <rect id="Прямоугольник_14" data-name="Прямоугольник 14" width="9.7" height="9.7" fill="#152035"/>
    </g>
  </g>
</svg>
