<svg xmlns="http://www.w3.org/2000/svg" width="232.793" height="232.8" viewBox="0 0 232.793 232.8">
  <g id="tools" transform="translate(-0.5 0.001)">
    <path id="Контур_54" data-name="Контур 54" d="M341.887,155.148a4.546,4.546,0,1,0,4.547,4.545A4.545,4.545,0,0,0,341.887,155.148Zm0,0" transform="translate(-183.683 -84.604)"  fill="#152035"/>
    <path id="Контур_55" data-name="Контур 55" d="M160.192,336.84a4.547,4.547,0,1,0,4.547,4.547A4.545,4.545,0,0,0,160.192,336.84Zm0,0" transform="translate(-84.603 -183.683)" fill="#152035"/>
    <path id="Контур_56" data-name="Контур 56" d="M227.644,27.972a4.543,4.543,0,0,0-4.256,1.226l-18.85,19H195.5L185.553,37.89V28.727l18.58-18.857a4.547,4.547,0,0,0-1.787-7.5A45.5,45.5,0,0,0,143.9,57.249L110.4,90.742l-55.8-55.927V23.839a4.546,4.546,0,0,0-2.208-3.9L20.249.648a4.543,4.543,0,0,0-5.554.684L1.836,14.189a4.551,4.551,0,0,0-.684,5.556l19.289,32.15a4.547,4.547,0,0,0,3.9,2.208l10.973,0,55.8,55.927L57.75,143.4A45.5,45.5,0,0,0,2.871,201.846a4.547,4.547,0,0,0,7.536,1.751l18.848-19h9.087l10.353,10.353v9.087l-19,18.848a4.547,4.547,0,0,0,1.751,7.536,45.479,45.479,0,0,0,51.422-16.564A44.961,44.961,0,0,0,89.9,175.545l26.8-26.8,6.138,6.668-2.817,2.815a4.548,4.548,0,0,0,6.431,6.431l2.551-2.55,57.593,62.559c.043.046.087.091.131.135a27.283,27.283,0,0,0,38.585-38.585c-.046-.046-.094-.091-.142-.135L162.507,128.6l2.522-2.522a4.547,4.547,0,1,0-6.431-6.43l-2.8,2.8-6.68-6.131,26.926-26.926a45.494,45.494,0,0,0,54.875-58.445,4.543,4.543,0,0,0-3.279-2.977ZM40.415,46.348A4.5,4.5,0,0,0,37.2,45.058l-10.284,0L10.777,18.111l7.838-7.838,26.9,16.141V36.7a4.546,4.546,0,0,0,1.329,3.211l57.134,57.264-6.431,6.43ZM156.071,135.04l62.87,57.676a18.19,18.19,0,0,1-25.727,25.722l-57.781-62.763Zm-6.707-6.154-20.1,20.093-6.138-6.668,19.555-19.557Zm38.462-47.044a36.338,36.338,0,0,1-11.621-1.9,4.555,4.555,0,0,0-4.666,1.094c-22.795,22.795-71.912,71.91-90,90a4.546,4.546,0,0,0-1.094,4.668A36.411,36.411,0,0,1,45.967,223.7,37.239,37.239,0,0,1,42,223.488l14.442-14.33a4.545,4.545,0,0,0,1.345-3.227V193.068a4.547,4.547,0,0,0-1.332-3.215L43.44,176.836a4.547,4.547,0,0,0-3.215-1.332H27.362a4.553,4.553,0,0,0-3.229,1.345L9.805,191.29a36.783,36.783,0,0,1-.213-3.964,36.412,36.412,0,0,1,48-34.48,4.544,4.544,0,0,0,4.666-1.094c.25-.249,89.934-89.934,90-90a4.546,4.546,0,0,0,1.094-4.666A36.407,36.407,0,0,1,187.825,9.093a37.158,37.158,0,0,1,4.083.226L177.766,23.672a4.544,4.544,0,0,0-1.307,3.19V39.724a4.541,4.541,0,0,0,1.275,3.158L190.3,55.9a4.543,4.543,0,0,0,3.272,1.389h12.863a4.544,4.544,0,0,0,3.227-1.345L223.986,41.5a36.783,36.783,0,0,1,.213,3.964,36.415,36.415,0,0,1-36.373,36.373Zm0,0" transform="translate(0 0)" fill="#152035"/>
    <path id="Контур_57" data-name="Контур 57" d="M242.153,184.757l-56.9,56.9a4.547,4.547,0,1,0,6.431,6.43l56.9-56.9a4.547,4.547,0,0,0-6.431-6.43Zm0,0" transform="translate(-100.023 -100.024)" fill="#152035"/>
    <path id="Контур_58" data-name="Контур 58" d="M387.6,393.691a4.547,4.547,0,1,0,6.421-6.44L353.036,346.4a4.547,4.547,0,0,0-6.421,6.44Zm0,0" transform="translate(-188.012 -188.172)" fill="#152035"/>
  </g>
</svg>
